<?xml version="1.0" encoding="utf-8"?>
<!-- Generator: Adobe Illustrator 20.1.0, SVG Export Plug-In . SVG Version: 6.00 Build 0)  -->
<svg version="1.1" id="Layer_1" xmlns="http://www.w3.org/2000/svg" xmlns:xlink="http://www.w3.org/1999/xlink" x="0px" y="0px"
	 viewBox="0 0 23 22" style="enable-background:new 0 0 23 22;" xml:space="preserve">
<g id="Page-1">
	<g id="kadin1_1" transform="translate(-719.000000, -1221.000000)">
		<g id="Group-41" transform="translate(180.000000, 1032.000000)">
			<g id="Group-39" transform="translate(524.200000, 175.000000)">
				<g id="Group-16" transform="translate(0.400000, 0.000000)">
					<g id="akrep" transform="translate(14.000000, 14.000000)">
						<g id="Capa_1">
							<g id="Group">
								<path id="Shape" d="M6.2,12.1c0.1,0,0.3-0.1,0.4-0.1c0.3,0,0.6,0,0.9,0l0.4,0l0-0.4c0-0.1,0-0.2,0.1-0.4
									c0-0.1,0.1-0.3,0.2-0.4c0.1-0.3,0.3-0.5,0.5-0.7c0.4-0.4,0.9-0.7,1.5-0.7h0.2l0.1-0.2C10.6,9,10.8,8.8,11,8.6
									c0.3-0.2,0.6-0.3,0.9-0.4C12.6,8.1,13.3,8.1,14,8c-0.7-0.2-1.4-0.2-2.2-0.2c-0.4,0-0.7,0.1-1.1,0.3
									c-0.3,0.1-0.6,0.4-0.8,0.7c-0.3,0-0.6,0.1-0.9,0.2C8.7,9.2,8.4,9.4,8.1,9.7c-0.3,0.3-0.5,0.5-0.7,0.9
									c-0.1,0.2-0.2,0.3-0.2,0.5c0,0.1-0.1,0.2-0.1,0.2c-0.6,0-1.1,0.1-1.7,0.3c-0.6,0.2-1.2,0.6-1.7,1.1c-0.5,0.5-0.8,1.1-1,1.7
									c-0.2,0.6-0.3,1.2-0.3,1.9c0.2-0.6,0.4-1.2,0.7-1.7c0.3-0.5,0.6-1,1.1-1.4c0.4-0.4,0.9-0.7,1.5-0.9
									C5.9,12.2,6,12.2,6.2,12.1L6.2,12.1z"/>
								<path id="Shape_1_" d="M3.8,11.8c0.4-0.3,0.9-0.5,1.3-0.6c0.5-0.1,1-0.2,1.5-0.1l0.4,0l0-0.4c0-0.1,0-0.2,0.1-0.3
									c0-0.1,0.1-0.2,0.2-0.3c0.1-0.2,0.3-0.4,0.5-0.6C7.9,9.3,8.1,9.2,8.3,9C8.4,9,8.5,9,8.5,9c0.1,0,0.1,0,0.2-0.1
									c0.1,0,0.2,0,0.3-0.1l0.3,0l0.1-0.2C9.4,8.3,9.8,8,10.2,7.9c0.4-0.2,1-0.2,1.5-0.2c-0.5-0.2-1-0.3-1.6-0.2
									c-0.3,0-0.5,0.1-0.8,0.3C9.2,7.9,9,8.1,8.9,8.2c-0.1,0-0.2,0-0.3,0c-0.1,0-0.2,0-0.2,0.1C8.2,8.4,8.1,8.4,8,8.4
									C7.7,8.6,7.5,8.8,7.2,9C7,9.2,6.8,9.4,6.6,9.7C6.5,9.8,6.4,10,6.4,10.1c0,0.1,0,0.1-0.1,0.2c-0.2,0-0.4,0-0.5,0
									c-0.3,0-0.6,0.1-0.8,0.2c-0.5,0.2-1.1,0.4-1.5,0.8c-0.4,0.4-0.8,0.8-1,1.3c-0.3,0.5-0.4,1-0.5,1.5C2.3,13.2,3,12.4,3.8,11.8
									L3.8,11.8z"/>
								<path id="Shape_2_" d="M1.8,11.7c-0.2,0.5-0.3,1-0.3,1.5c0.3-0.9,0.9-1.8,1.6-2.3c0.4-0.3,0.8-0.4,1.2-0.5
									c0.2,0,0.5-0.1,0.7-0.1c0.2,0,0.5,0,0.7,0l0.3,0l0.1-0.4c0,0,0-0.2,0.1-0.3c0-0.1,0.1-0.2,0.2-0.3C6.6,9,6.7,8.8,6.9,8.7
									C7,8.6,7.1,8.5,7.2,8.5c0.1-0.1,0.2-0.1,0.3-0.2c0.1,0,0.2-0.1,0.4-0.1c0.1,0,0.2,0,0.4,0l0.3,0l0-0.1
									C8.6,7.8,9,7.5,9.4,7.4c0.4-0.1,0.8-0.2,1.3-0.2C10.2,7.1,9.8,7,9.3,7.1c-0.2,0-0.5,0.1-0.7,0.2C8.4,7.3,8.2,7.4,8.1,7.6
									c-0.1,0-0.2,0-0.3,0c-0.2,0-0.3,0-0.5,0.1C7.1,7.7,7,7.8,6.8,7.9C6.8,7.9,6.7,7.9,6.6,8C6.6,8,6.5,8.1,6.4,8.1
									C6.3,8.2,6.2,8.3,6.1,8.4C5.1,8.1,1,6.6,2.9,4.4c2.2-2.6,4.7-2.4,4.7-2.4s1.7,1.3,2.3,0.9c-1.2-1-0.3-1.1-0.3-1.1s1-0.1,2,1
									c0.1-0.9-2-2-2.3-2.1C8.8,0.7,8.3,0.5,7.5,1.1C6.3,0.7,2.9,1.6,1.2,3.9c-1.8,3.2,1.3,5.3,2.4,5.9C3.3,10,3,10.1,2.8,10.4
									C2.4,10.7,2,11.2,1.8,11.7L1.8,11.7z"/>
								<path id="Shape_3_" d="M21.1,8.2c-1.3-0.7-2-0.3-2.8,0.1c-0.2,0.1-2.3-0.4-3.6-0.2c-1.3,0.2-3.9,1.4-4.1,1.4c0,0,0,0,0,0
									c0,0,0,0,0,0h0c-0.4,0.2-2.3,1.3-2.3,2.4c-0.1,0.1-0.2,0.2-0.4,0.3c-1,0.8-2.6,2-2.2,3.6c0.4,1.9,2.7,2.9,2.8,3
									c0,0,0,1.8,2.9,2.4c3.2,0.7,5.1-2.1,5.1-2.1s-4,1.8-4.6,0.5c-0.3-0.6,2.1-1.1,2-1.5c-1.1-0.4-2.7,0.1-2.7,0.4
									c-0.3-0.9-2.2-0.7-2.2-0.7S6.9,17,6.7,15.6c-0.2-0.9,1.1-1.9,1.9-2.6c0.4-0.3,0.6-0.5,0.7-0.7c0.5,0.1,1,0.2,1.1,0.2
									c0,0,0,0,0,0c0.1,0.3,0.4,0.5,0.9,0.6c1.2,0.1,1.5-0.6,1.6-0.5c1.1,1.5,3.4,0.3,3.4,0.3s-2.7-0.3-2.4-1.5
									c0.4-1.2,2-0.8,2.4-0.5c0.3-1.1-2.5-1.1-2.5-0.7c-0.6-0.7-1.3-0.8-1.8-0.5c-0.1,0-0.2-0.1-0.3-0.1c0.4-0.2,1.8-0.7,3.2-1
									c1.6-0.3,3.8,0.4,3.8,0.9c0,0.5,1.4,1.5,2.4,1.5c-0.8-0.8-0.9-1.4-0.5-1.7c0.4-0.2,1.9,0.6,2.6,1.7
									C23.2,10.3,22.3,8.9,21.1,8.2L21.1,8.2z"/>
							</g>
						</g>
					</g>
				</g>
			</g>
		</g>
	</g>
</g>
</svg>
