<?xml version="1.0" encoding="utf-8"?>
<!-- Generator: Adobe Illustrator 20.1.0, SVG Export Plug-In . SVG Version: 6.00 Build 0)  -->
<svg version="1.1" id="Layer_1" xmlns="http://www.w3.org/2000/svg" xmlns:xlink="http://www.w3.org/1999/xlink" x="0px" y="0px"
	 viewBox="0 0 18 18" style="enable-background:new 0 0 18 18;" xml:space="preserve">
<g id="Page-1">
	<g id="kadin1_1" transform="translate(-472.000000, -1223.000000)">
		<g id="Group-41" transform="translate(180.000000, 1032.000000)">
			<g id="Group-37" transform="translate(276.600000, 175.000000)">
				<g id="Group-23" transform="translate(0.200000, 0.000000)">
					<g id="aslan" transform="translate(16.000000, 16.000000)">
						<g id="Capa_1">
							<path id="Shape" d="M16,11.2c0.8-1,1.8-7.9-3.5-10.3C7.2-1.4,4.6,2.1,4.7,3.5C2.9,4.2,2.5,6.3,2.5,6.3s-2.6,1.3-2.5,3
								S2,11,2,11l0.6,0.8L2.6,11c0,0,2.8-1.4,2.9-0.2c0.1,1.2-2.5,1.6-2.5,1.6L2.6,12l0.2,0.8c0,0-0.6,0.2-0.3,0.8
								c0.5,0.9,2.2-0.3,2.2-0.3s-1.3,5.3,2.5,4.1c-2.3-1.3-0.2-3.2-0.2-3.2s0.5,5,5.1,2c-3.7,0.4-2.8-1.5-2.4-2
								c0.4-0.4,2.4-2.7,2.4-2.7s1.1,1.7-1.5,3.7c3.4,1,3.6-5.6,3.6-5.6s0.8,3.1-1.3,5.3c4.8-1.1,2.4-7.6,2.4-7.6S16,7.6,16,11.2
								L16,11.2z M3.2,6.1C3.1,5.8,3.3,5.5,3.6,5.5S4.7,5.7,5,5.9C5.2,6,3.3,6.4,3.2,6.1L3.2,6.1z"/>
						</g>
					</g>
				</g>
			</g>
		</g>
	</g>
</g>
</svg>
