<?xml version="1.0" encoding="utf-8"?>
<!-- Generator: Adobe Illustrator 20.1.0, SVG Export Plug-In . SVG Version: 6.00 Build 0)  -->
<svg version="1.1" id="Layer_1" xmlns="http://www.w3.org/2000/svg" xmlns:xlink="http://www.w3.org/1999/xlink" x="0px" y="0px"
	 viewBox="0 0 22 22" style="enable-background:new 0 0 22 22;" xml:space="preserve">
<g id="Page-1">
	<g id="kadin1_1" transform="translate(-842.000000, -1221.000000)">
		<g id="Group-41" transform="translate(180.000000, 1032.000000)">
			<g id="Group-40" transform="translate(648.000000, 175.000000)">
				<g id="Group-17">
					<g id="balik" transform="translate(14.000000, 14.000000)">
						<g id="Capa_1">
							<g id="Group">
								<path id="Shape" d="M10.4,10.1c0,0,0.1,0.2,0.2,0.2c0.7,0.2,3.9,0.9,4.9,0.3c0.5-0.3-1.3-1.9-1.3-1.9s2.1,1,2.5,0.6
									c1.3-2.1-2.1-5.6-3-6.5c-0.2-0.2-0.4-0.1-0.4-0.1L9.3,5.7L10.4,10.1L10.4,10.1z M14.2,6.1c0.4,0,0.6,0.3,0.6,0.6
									c0,0.4-0.3,0.6-0.6,0.6c-0.4,0-0.6-0.3-0.6-0.6C13.5,6.4,13.8,6.1,14.2,6.1L14.2,6.1z"/>
								<path id="Shape_1_" d="M9.4,9.9c0.4,0,0.3-0.5,0.3-0.5l-1-4.1L13,2.6c0,0,0.3-0.2,0-0.4C12.3,1.6,10.3-0.1,9.6,0
									C8.8,0.1,9,2.2,8.4,2.1C2.2,2.4,0,13.1,0.3,13.4c0.3,0.4,0.5,0.6,1.1,0.2c0.5,1.2-0.7,3.8-1.1,4.9c-0.1,0.3,0.2,0.2,0.4,0.1
									c1-1,1.6-1.3,2-1.3c0.4,0,1.3,0.4,1.8,0.7c0.2,0.2,0.5,0.1,0.3-0.2C0.7,9.4,7.5,9.7,9.4,9.9L9.4,9.9z"/>
								<path id="Shape_2_" d="M11.6,11.9c0,0-0.1-0.2-0.2-0.2c-0.7-0.2-3.9-0.9-4.9-0.3c-0.5,0.3,1.3,1.9,1.3,1.9s-2.1-1-2.5-0.6
									c-1.3,2.1,2.1,5.6,3,6.5c0.2,0.2,0.4,0.1,0.4,0.1l4.1-2.8L11.6,11.9L11.6,11.9z M7.8,15.9c-0.4,0-0.6-0.3-0.6-0.6
									s0.3-0.6,0.6-0.6c0.4,0,0.6,0.3,0.6,0.6S8.2,15.9,7.8,15.9L7.8,15.9z"/>
								<path id="Shape_3_" d="M21.4,3.3c-1,1-1.6,1.3-2,1.3c-0.4,0-1.3-0.4-1.8-0.7c-0.2-0.2-0.5-0.1-0.3,0.2
									c4,8.4-2.8,8.1-4.7,7.9c-0.4,0-0.3,0.5-0.3,0.5l1,4.1L9,19.4c0,0-0.3,0.2,0,0.4c0.7,0.6,2.7,2.3,3.4,2.2
									c0.8-0.1,0.6-2.2,1.2-2.1c6.2-0.3,8.4-11,8.1-11.3c-0.3-0.3-0.5-0.6-1.1-0.2c-0.5-1.2,0.7-3.8,1.1-4.9
									C21.9,3.1,21.6,3.2,21.4,3.3L21.4,3.3z"/>
							</g>
						</g>
					</g>
				</g>
			</g>
		</g>
	</g>
</g>
</svg>
