<?xml version="1.0" encoding="utf-8"?>
<!-- Generator: Adobe Illustrator 20.1.0, SVG Export Plug-In . SVG Version: 6.00 Build 0)  -->
<svg version="1.1" id="Layer_1" xmlns="http://www.w3.org/2000/svg" xmlns:xlink="http://www.w3.org/1999/xlink" x="0px" y="0px"
	 viewBox="0 0 16 23" style="enable-background:new 0 0 16 23;" xml:space="preserve">
<g id="Page-1">
	<g id="kadin1_1" transform="translate(-598.000000, -1221.000000)">
		<g id="Group-41" transform="translate(180.000000, 1032.000000)">
			<g id="Group-38" transform="translate(400.400000, 175.000000)">
				<g id="Group-24" transform="translate(0.800000, 0.000000)">
					<g id="basak" transform="translate(17.000000, 14.000000)">
						<g id="Capa_1">
							<g id="Group">
								<path id="Shape" d="M14.7,6.5C14,3.8,12.9-0.1,7.4,0c-1.1,0.4,3,0.7,2.7,2.1C8.2,1,7.1,0.3,5.7,0.4C4.4,0.5,3.9,1.7,3.9,2.6
									c1.1,0.6,2.4,5.1,2.9,6s1.2,2.4,2,2.8c0.8,0.4-1.1,3.2-2.7,3.3c-1.6,0.1-5.6,1.8-6.1,4.2c1-1.2,4.8-3.2,6.5-3.2
									c1.7,0.1,3.3-1.9,3.5-2.4c0.1,2.5-2.4,3.5-4.1,3.5c-2.5,0-6.2,2.4-5.7,3.9c0.5-1.3,3.6-2.8,5.6-2.8c2.1-0.1,4-1.2,4.9-2.1
									c-0.5,2-2.3,2.7-4.3,3c-2,0.4-6.2,1.5-6.1,3.5c0.8-1.2,4.4-2.3,8.4-2.6C12.7,19.4,15.9,11.3,14.7,6.5L14.7,6.5z M10.1,1.2
									c0,0,3.2,1.8,1.6,4.8C12.1,3.1,10.1,1.2,10.1,1.2L10.1,1.2z M12.4,3.2c0,0,3.5,5-0.6,7.4C14.3,7.3,12.4,3.2,12.4,3.2
									L12.4,3.2z"/>
								<path id="Shape_1_" d="M2.3,9.2c0,0.3-0.2,0.7-0.2,0.9s-0.3,0.1-0.3,0.4c0,0.3,0.4,0.4,0.4,0.4s-0.3,0.2-0.3,0.4
									c0.1,0.4,0.7,0.1,0.8,0.2c0,0.1,0,0,0,0.3c0,0.3-0.6,0.4-0.3,1.2c0.4,1,4.9,0.4,6-1.6C4.6,7.9,4.5,2.7,3.7,2.8
									C3,2.9,2.3,6.1,2.3,6.9c0,0.8-0.8,1.2-0.9,1.8C1.3,9.3,2.1,9.1,2.3,9.2L2.3,9.2z M2.5,6.5c0-0.1,1.1,0.2,1.1,0.4
									c0,0.2-0.8,0.2-1,0.2C2.6,7,2.3,7,2.5,6.5L2.5,6.5z"/>
							</g>
						</g>
					</g>
				</g>
			</g>
		</g>
	</g>
</g>
</svg>
