<?xml version="1.0" encoding="utf-8"?>
<!-- Generator: Adobe Illustrator 20.1.0, SVG Export Plug-In . SVG Version: 6.00 Build 0)  -->
<svg version="1.1" id="Layer_1" xmlns="http://www.w3.org/2000/svg" xmlns:xlink="http://www.w3.org/1999/xlink" x="0px" y="0px"
	 viewBox="0 0 21 22" style="enable-background:new 0 0 21 22;" xml:space="preserve">
<g id="Page-1">
	<g id="kadin1_1" transform="translate(-843.000000, -1125.000000)">
		<g id="Group-41" transform="translate(180.000000, 1032.000000)">
			<g id="Group-35" transform="translate(648.000000, 78.000000)">
				<g id="Group-15">
					<g id="boga" transform="translate(15.000000, 15.000000)">
						<g id="Capa_1">
							<path id="Shape" d="M20.6,0c0,0-4.3,8.8-6.8,7c-0.8-0.5-1.6-0.7-3.2-0.7C8.9,6.4,8.9,6.6,7.1,7C3.4,7.9,0.3,0,0.3,0
								S-1,10.4,5.6,11.4C5.9,11.3,5,13,6,14.6c1,1.6,1.8,1.7,1.6,3c0,0.8,0.8,3.5,2.7,3.7c0,0,0.1,0,0.1,0c2-0.2,2.8-3,2.7-3.7
								c-0.1-1.3,0.7-1.4,1.7-3c1-1.6,0.1-2.9,0.4-3.3C22.9,10,20.6,0,20.6,0L20.6,0z M8.6,14.1c-0.3-0.1-2-1.3-1.7-1.7
								c0.4-0.4,2.2,1,2.4,1.2C9.4,13.7,8.8,14.2,8.6,14.1L8.6,14.1z M10,20.9c-0.3,0-0.7-0.7-0.5-1c0.2-0.3,0.5-0.2,0.5,0
								C10,20.1,10.3,20.9,10,20.9L10,20.9z M10.9,20.9c-0.3,0,0-0.8,0-1s0.3-0.3,0.5,0C11.6,20.2,11.3,20.9,10.9,20.9L10.9,20.9z
								 M12.3,14.1c-0.3,0.1-0.8-0.4-0.7-0.6c0.1-0.2,2-1.6,2.4-1.2C14.4,12.8,12.6,13.9,12.3,14.1L12.3,14.1z"/>
						</g>
					</g>
				</g>
			</g>
		</g>
	</g>
</g>
</svg>
