<?xml version="1.0" encoding="utf-8"?>
<!-- Generator: Adobe Illustrator 20.1.0, SVG Export Plug-In . SVG Version: 6.00 Build 0)  -->
<svg version="1.1" id="Layer_1" xmlns="http://www.w3.org/2000/svg" xmlns:xlink="http://www.w3.org/1999/xlink" x="0px" y="0px"
	 viewBox="0 0 22 21" style="enable-background:new 0 0 22 21;" xml:space="preserve">
<g id="Page-1">
	<g id="kadin1_1" transform="translate(-224.000000, -1222.000000)">
		<g id="Group-41" transform="translate(180.000000, 1032.000000)">
			<g id="Group-29" transform="translate(30.000000, 175.000000)">
				<g id="Group-19">
					<g id="ikizler" transform="translate(14.000000, 15.000000)">
						<g id="Capa_1">
							<path id="Shape" d="M20.3,16.3c-0.4,0,0-0.9,0-0.9s2.8-5.3-3.2-4.6c0.4,0-0.2-2.2,0.2-2.1c0.4,0.2,2.5,0.8,3.3-0.9
								s0.2-3,0.2-3.7S19.5,3.5,19.5,4c0,0.5,0,2.4-0.5,3.1s-1.9,0.1-2.1-0.3c-0.2-0.3-1.1-0.4-1.5-0.2c0-0.1,0-0.2,0-0.4
								c1.3-0.2,2.2-1.4,2.2-2.8c0-1.6-1.2-2.8-2.7-2.8c-1.5,0-2.7,1.3-2.7,2.8c0,1.2,0.7,2.2,1.7,2.6c0,0.2,0,0.5,0,0.6
								c-0.7-0.6-1.8-0.1-2.6,0c0,0,0,0,0,0c-0.1,0-0.2,0-0.3,0c-0.1,0-0.2,0-0.3,0c0,0,0,0,0,0c-0.8-0.1-2-0.6-2.6,0
								c0-0.2,0-0.4,0-0.6c1-0.4,1.7-1.4,1.7-2.6c0-1.6-1.2-2.8-2.7-2.8c-1.5,0-2.7,1.3-2.7,2.8c0,1.4,1,2.6,2.2,2.8
								c0,0.2,0,0.3,0,0.4C6.2,6.4,5.3,6.4,5.1,6.8C4.9,7.1,3.5,7.7,3,7S2.5,4.5,2.5,4c0-0.6-1.3-0.6-1.3,0.2s-0.6,2,0.2,3.7
								c0.7,1.7,2.8,1.1,3.3,0.9c0.4-0.2-0.2,2,0.2,2.1c-6-0.7-3.2,4.6-3.2,4.6s0.4,0.9,0,0.9c-0.4,0-1.5-0.2-1.7,0.8
								c-0.2,0.9,3.4,1.5,3.6,1.1c0.2-0.4-0.9-4.8,2.5-4.8c3,0.2,3.9,5.5,3.9,5.5s-1,0.8-0.5,1.3c0.3,0.4,1,0.4,1.5,0.3
								c0.5,0,1.3,0,1.5-0.3c0.4-0.6-0.5-1.3-0.5-1.3s0.9-5.2,3.9-5.5c3.4-0.1,2.3,4.3,2.5,4.8c0.2,0.4,3.8-0.1,3.6-1.1
								C21.8,16.1,20.7,16.4,20.3,16.3L20.3,16.3z"/>
						</g>
					</g>
				</g>
			</g>
		</g>
	</g>
</g>
</svg>
