<?xml version="1.0" encoding="utf-8"?>
<!-- Generator: Adobe Illustrator 20.1.0, SVG Export Plug-In . SVG Version: 6.00 Build 0)  -->
<svg version="1.1" id="Layer_1" xmlns="http://www.w3.org/2000/svg" xmlns:xlink="http://www.w3.org/1999/xlink" x="0px" y="0px"
	 viewBox="0 0 20 22" style="enable-background:new 0 0 20 22;" xml:space="preserve">
<g id="Page-1">
	<g id="kadin1_1" transform="translate(-472.000000, -1124.000000)">
		<g id="Group-41" transform="translate(180.000000, 1032.000000)">
			<g id="Group-32" transform="translate(277.200000, 78.000000)">
				<g id="Group-27">
					<g id="koc" transform="translate(15.000000, 14.000000)">
						<g id="Capa_1">
							<g id="Group">
								<path id="Shape" d="M19.2,19.8c0,0,0.4-1.3,0.2-1.7c-0.1-0.4-1.1-2.6-1.7-4c-0.2-0.5-0.3-0.9-0.3-1.1c0-0.7,0.9-2.5,0.7-3.7
									c-0.2-1.2-2.4-2.7-2.1-3c0.3-0.2,3.1-0.1,3.3-0.4c0.2-0.3,0.6-0.6,0.3-1c-0.3-0.4-2.7-1.6-2.9-1.7c-0.1-0.1-0.3-2.3-1.8-2
									C15.4,4,14.8,5,12.3,5.9c-0.4,0.3-0.3,1.7-0.1,2.3C12.8,11.4,8,10,6.6,10C5,9.9,4.2,9.7,2.8,10.6c-1,0.7-1.8,0.2-2.3-0.2
									c-0.9,1.4,1.7,1.3,1.5,1.7c-0.4,0.8-0.2,2.3,0,2.6c0.2,0.3,0.2,0.8,0.2,0.9c-0.2,0.6-1.7,2-1.7,2.8c0,0.7,0.1,2.6,0.1,2.6
									s-0.1,1,0.1,1c0.2,0,1.5,0,1.8,0s-0.1-1-0.8-1c0-0.2,0.1-2.5,0.1-2.5l1.8-2.1c0,0,0.2,2,0.5,2.4c0.3,0.4,1.3,2.2,1.3,2.2
									s-0.1,0.8,0.1,0.8s1.2,0,1.6,0c0.4,0-0.1-1-0.7-0.9c-0.2-0.3-0.7-2.2-0.9-2.6s-0.2-1.8-0.2-2.4c0-0.6,0.7,0.4,3.6,0.4
									c3,0,3.9-0.4,3.9-0.4s0.6,4.8,0.7,5.1c0.1,0.4-0.1,0.8,0.1,0.8c0.2,0,1.4,0,1.8,0c0.3,0,0.1-1.1-0.7-1.1
									c-0.2-0.4-0.3-2.6-0.3-2.6l1.3-2.3c0,0,2,2,2.3,2.5c0.3,0.5,0.1,1.9,0.1,1.9s-0.3,0.3-0.3,0.5c0.2,0.3,0.7,0.7,1.1,1.1
									c0.6-0.1,0.6-0.8,0.5-1.2C19.4,20.1,19.2,19.8,19.2,19.8L19.2,19.8z"/>
								<path id="Shape_1_" d="M11.9,4.6C13.5,3.7,12.4,2,12,2.2c0.2,0.7,0.1,1.8-1,1.7C10,3.8,9.9,1.8,11.7,1.3
									c1.8-0.5,3.2,2.8-0.3,3.9c2.3,0.2,3.5-0.9,3.3-3.6S8.6-0.4,8.5,2.6C8.4,5.7,11.2,4.9,11.9,4.6L11.9,4.6z"/>
							</g>
						</g>
					</g>
				</g>
			</g>
		</g>
	</g>
</g>
</svg>
