<?xml version="1.0" encoding="utf-8"?>
<!-- Generator: Adobe Illustrator 20.1.0, SVG Export Plug-In . SVG Version: 6.00 Build 0)  -->
<svg version="1.1" id="Layer_1" xmlns="http://www.w3.org/2000/svg" xmlns:xlink="http://www.w3.org/1999/xlink" x="0px" y="0px"
	 viewBox="0 0 22 22" style="enable-background:new 0 0 22 22;" xml:space="preserve">
<style type="text/css">
	.st0{fill:#020202;}
</style>
<g id="Page-1">
	<g id="kadin1_1" transform="translate(-595.000000, -1124.000000)">
		<g id="Group-41" transform="translate(180.000000, 1032.000000)">
			<g id="Group-33" transform="translate(400.800000, 78.000000)">
				<g id="Group-28">
					<g id="kova" transform="translate(14.000000, 14.000000)">
						<g id="Capa_1">
							<path id="Shape" class="st0" d="M19.5,14.5c0-1.6,0.1-5.2,0.2-6.4c0-1.2-1.8-2.8-1.8-2.8s0.1-0.5,0.5-0.5
								c0.4,0,0.4,0.1,0.7,0c0.1-0.1,0.2-0.4,0.3-0.5C19.5,4.3,19.3,4,19.3,4s0.2,0,0.2,0c0-0.1-0.1-0.2-0.1-0.4
								c0-0.2,0.3-0.1,0.4-0.3c-0.1-0.4-0.5-1.1-0.2-1.2c0.2-0.1,0.5,0,0.8-0.1c0.3-0.1,0.3-0.5,0.1-0.9C20.3,0.6,19.3,0,18.3,0
								c-2.2-0.1-3.7,1.8-2.7,3.6c0.5,1,0.1,1.8-0.9,1.7S9.6,8,8.4,7.9c-0.6-0.1-0.9-0.1-1.1,0c0,0,0,0-0.1,0L6.5,6.1
								c0.3,0,1,0,1.4-0.5C8.5,5,8.9,4,6.9,3.2C6.6,3.1,6.6,2.3,6.9,1.8c-0.8-0.2-1,0.8-0.7,1.4C6.5,3.7,6.9,4,7.1,4.5
								C7.2,4.9,6.3,5,6.3,5L5.7,4.1l0.8-0.3L4.6,2.1l0,0v0l0,0l0,0l0,2.5l0.7-0.4l0.2,1c0,0-0.7,0.6-0.9,0.2C4.4,5.1,4.4,4.6,4.2,4
								S3.2,2.8,2.7,3.6c0.6,0.1,1.2,0.7,1,0.9c-0.8,2,0.2,2.4,1,2.4c0.6,0,1.1-0.4,1.3-0.7L6.8,8C6.7,8.1,6.6,8.2,6.6,8.3
								c0,0.2,0.2,0.4,0.5,0.4l1.3,3.5c-1.4-0.2-3,0.6-3,0.6s-3.4-2.6-5-0.5c3,1,3.5,2.1,3.5,3.7c0,1.6,0.4,5.8,5.6,6
								c5.2,0.1,6.4-5.2,6.5-7.5c0.1-2.3,1.9-5.9,1.9-4.9c0.3,0.4-0.2,6.8,1.2,6.9c0.7,0.1,1.7,0.1,2.3,0.1
								C21.7,15.4,19.6,16.1,19.5,14.5L19.5,14.5z M8.2,17c-1.8-0.3-1.4-2.3,0.8-3.6l1.1,2.9C9.5,16.8,8.9,17.2,8.2,17L8.2,17z
								 M12.7,12.5c-0.5,0.8-1.6,2.6-2.4,3.5l-1.1-2.8C9.5,13.1,9.7,13,9.9,13c-0.2-0.3-0.6-0.5-0.9-0.6L7.6,8.8c0,0,0.1,0,0.1,0
								c1.4,0.5,4.5-0.6,5.8-1.6C14.7,7.1,13.3,11.7,12.7,12.5L12.7,12.5z"/>
						</g>
					</g>
				</g>
			</g>
		</g>
	</g>
</g>
</svg>
