<?xml version="1.0" encoding="utf-8"?>
<!-- Generator: Adobe Illustrator 20.1.0, SVG Export Plug-In . SVG Version: 6.00 Build 0)  -->
<svg version="1.1" id="Layer_1" xmlns="http://www.w3.org/2000/svg" xmlns:xlink="http://www.w3.org/1999/xlink" x="0px" y="0px"
	 viewBox="0 0 23 22" style="enable-background:new 0 0 23 22;" xml:space="preserve">
<g id="Page-1">
	<g id="kadin1_1" transform="translate(-347.000000, -1124.000000)">
		<g id="Group-41" transform="translate(180.000000, 1032.000000)">
			<g id="Group-31" transform="translate(153.600000, 78.000000)">
				<g id="Group-26">
					<g id="oglak" transform="translate(14.000000, 14.000000)">
						<g id="Capa_1">
							<g id="Group">
								<ellipse id="Oval" cx="13.8" cy="7.1" rx="1.9" ry="1.9"/>
								<path id="Shape" d="M7.4,10.4c4.5,4.7,9.5,0.8,10.1,0.1c1.3-1.5,1.4-5.3-0.1-7.2c0.3,6.5-3.1,7.4-5.4,5.8
									c-2.8-2.2,0.7-6.8,4.3-3.7c0-0.9,0.3-4.6-0.1-5C9.7-1.9,2.9,5.7,7.4,10.4L7.4,10.4z"/>
								<path id="Shape_1_" d="M17.5,2.2C18.2,2.6,19.9,5.8,19,9c-0.6,1.7-2.4,4.6-7.5,4.3c-5.3-0.2-9-5.8-4.6-11
									C6.4,2.7,0.1,4.7,0.1,4.7V20c0,0,6.3-2.4,7.5-4.2c0,1,0,3.4,0.5,4.4c0.5,1,3.4,2.3,4.1,1.6c0.7-0.8,3.5-5.1,3.5-5.1
									s1.8-0.8,2.7-3.8C20.6,11.6,25.4,6.1,17.5,2.2L17.5,2.2z"/>
							</g>
						</g>
					</g>
				</g>
			</g>
		</g>
	</g>
</g>
</svg>
