<?xml version="1.0" encoding="utf-8"?>
<!-- Generator: Adobe Illustrator 20.1.0, SVG Export Plug-In . SVG Version: 6.00 Build 0)  -->
<svg version="1.1" id="Layer_1" xmlns="http://www.w3.org/2000/svg" xmlns:xlink="http://www.w3.org/1999/xlink" x="0px" y="0px"
	 viewBox="0 0 22 21" style="enable-background:new 0 0 22 21;" xml:space="preserve">
<g id="Page-1">
	<g id="kadin1_1" transform="translate(-224.000000, -1125.000000)">
		<g id="Group-41" transform="translate(180.000000, 1032.000000)">
			<g id="Group-30" transform="translate(30.000000, 78.000000)">
				<g id="Group-25">
					<g id="terazi" transform="translate(14.000000, 15.000000)">
						<g id="Capa_1">
							<path id="Shape" d="M20.8,14l-2.3-7.2H18V6.4C19.1,6.1,19.1,5,19.1,5S18.7,5.5,18,5.7V5.4h-0.4v0.4c0,0,0,0-0.1,0
								c-1,0-1.5-1.7-2.8-1.7c-1.2,0-2.5,0.7-3.4,0.8v-2c0.6-0.1,1.1-0.6,1.1-1.3c0-0.7-0.6-1.3-1.3-1.3c-0.7,0-1.3,0.6-1.3,1.3
								c0,0.7,0.5,1.2,1.2,1.3v1.9c-0.9-0.1-2.2-0.8-3.3-0.8c-1.3,0-1.7,1.7-2.8,1.7c-0.1,0-0.2,0-0.2,0V5.4H4.2v0.3
								C3.6,5.4,3.2,5,3.2,5s0,1,1,1.4v0.5H3.6L1.3,14H0c0,0,0.9,1.8,4.3,1.8S8.7,14,8.7,14H7.5L5.2,6.8H4.7V6.4c0.1,0,0.2,0,0.3,0
								c1.7,0,1.9-1.1,2.9-1.1c0.8,0,1.8,1.1,3,1.3c0.1,0,0.3,0,0.2,0l0,4l-0.8,1.6l0,4.7H8.2v0.8l-1.7,2.8h9.6L14,17.8V17h-1.8
								v-4.7l-0.8-1.7l0-4c0.1,0,0.1,0,0.1,0c1.2-0.2,2.2-1.3,3-1.3c0.9,0,1.2,1.1,2.9,1.1c0,0,0.1,0,0.1,0v0.3h-0.6L14.6,14h-1.3
								c0,0,0.9,1.8,4.3,1.8S22,14,22,14H20.8L20.8,14z M4.2,14H1.8L4,7.2h0.2V14L4.2,14z M4.9,7.2L7,14H4.7V7.2H4.9L4.9,7.2z
								 M17.5,14h-2.4l2.2-6.8h0.2L17.5,14L17.5,14L17.5,14z M18,14V7.2h0.2l2.1,6.8L18,14L18,14L18,14z"/>
						</g>
					</g>
				</g>
			</g>
		</g>
	</g>
</g>
</svg>
