<?xml version="1.0" encoding="utf-8"?>
<!-- Generator: Adobe Illustrator 20.1.0, SVG Export Plug-In . SVG Version: 6.00 Build 0)  -->
<svg version="1.1" id="Layer_1" xmlns="http://www.w3.org/2000/svg" xmlns:xlink="http://www.w3.org/1999/xlink" x="0px" y="0px"
	 viewBox="0 0 23 20" style="enable-background:new 0 0 23 20;" xml:space="preserve">
<g id="Page-1">
	<g id="kadin1_1" transform="translate(-346.000000, -1222.000000)">
		<g id="Group-41" transform="translate(180.000000, 1032.000000)">
			<g id="Group-36" transform="translate(152.800000, 175.000000)">
				<g id="Group-22" transform="translate(0.600000, 0.000000)">
					<g id="yay" transform="translate(13.000000, 15.000000)">
						<g id="Capa_1">
							<g id="Group">
								<path id="Shape" d="M19.5,6.6c-2.2-0.1-1.7,2.2-1.5,3.1c0.2,0.9-2.2-1-2.8-0.4c-0.4-1-5.7,0.6-6.8-0.8c-0.2-0.4,0-1.2,0-1.2
									s1.6-0.5,1.5-1.3c0.3,0.4,2.3,0.8,2.4,0.5c0.2-0.3,0-0.6,0-0.6s-2-1.4-2.6-2.3C11,2.9,10.7,2.5,10.6,2
									c-0.3-1.3-2.2-1.1-2.2-1.1s1.2,1,0.9,1.2C9.1,2.4,8.5,2.1,8.2,1.7C8.1,1.7,8,1.9,8,1.9C7.4,2.2,7.7,3.3,7.7,3.6
									c-0.7,0-2.1,1.6-3,1.6S2,4.3,2,4.3S2.1,2.6,2.4,2c0.3-0.5,2.1-1.7,2.1-1.7L4.5,0c0,0-2.2,1.3-2.5,2.1C1.7,3,1.6,4.1,1.6,4.1
									S1,3.6,0.9,4C0.8,4.3,1.5,4.8,1.5,4.8S0.8,6.1,1.2,7.3c0.4,1.1,1.2,2.1,1.2,2.1l0.1-0.5c0,0-0.8-0.8-1-1.7
									C1.3,6.3,1.9,5,1.9,5s2,1.4,3.9,0.9c0,0.3,0.1,4.1-1.5,4.5c-0.3-0.2-0.9-1-1.1-0.9c-0.2,0.1-1.5,2.3-2.4,2.3
									c0.4,0.4,0.4,0.4,0.5,0.5c0.3-0.4,2.1-1.9,2.1-1.9s0.1,0.7,0.4,1.2c0.3,0.6,1,0.9,0.9,1c0,0.2-1.9,0-1.9,0s-1.9,2.7-2,3
									c-0.1,0.3,0,1.2,0,1.2h0.7l0.2-1c0,0,1.3-2.5,1.7-2.2c3,0.6,9.1,0,9.4-0.1c-0.2,1.1,0.7,1.7,0.8,2c0.1,0.2-0.1,0.6-0.2,0.8
									c-0.1,0.2-2.6,0.2-2.9,0.4s-0.7,0.8-0.9,1c0.3,0.2,0.4,0.2,0.6,0.3c0.1-0.4,1.1-0.8,1.1-0.8l2.5-0.2c0,0,0.5-1.1,0.8-0.8
									c0.5,0.5-2.4,3.6-2.4,3.6s0.5,0,0.8,0c0.2-0.4,2.7-2.6,2.7-3.3c0-0.7-0.8-1.1-0.7-2.2c0.1-1.1,2.1-2.2,0.8-4
									c0.6-0.3,0.9,1,2,1c1,0,1.2-0.8,1.2-1.2s-0.8-2.3,0-2.2c0.2,0.1,0.8,1.4,1.2,1.7c1,0.4,1.6,0.2,2-0.2
									C21,9.5,21.7,6.8,19.5,6.6L19.5,6.6z"/>
								<polygon id="Shape_1_" points="9.1,17.7 10,18.2 10.1,17.5 9.5,17.2 								"/>
								<polygon id="Shape_2_" points="12.1,19.3 11.8,19.9 13.1,19.9 12.9,19.3 								"/>
								<polygon id="Shape_3_" points="0.9,16.6 0.7,17.2 1.8,17.2 1.6,16.6 								"/>
								<polygon id="Shape_4_" points="1.1,12.2 0.6,11.7 0,12 0.8,12.8 								"/>
							</g>
						</g>
					</g>
				</g>
			</g>
		</g>
	</g>
</g>
</svg>
