<?xml version="1.0" encoding="utf-8"?>
<!-- Generator: Adobe Illustrator 20.1.0, SVG Export Plug-In . SVG Version: 6.00 Build 0)  -->
<svg version="1.1" id="Layer_1" xmlns="http://www.w3.org/2000/svg" xmlns:xlink="http://www.w3.org/1999/xlink" x="0px" y="0px"
	 viewBox="0 0 23 24" style="enable-background:new 0 0 23 24;" xml:space="preserve">
<g id="Page-1">
	<g id="kadin1_1" transform="translate(-718.000000, -1123.000000)">
		<g id="Group-41" transform="translate(180.000000, 1032.000000)">
			<g id="Group-34" transform="translate(524.400000, 78.000000)">
				<g id="Group-14">
					<g id="yengec" transform="translate(14.000000, 13.000000)">
						<g id="Capa_1">
							<path id="Shape" d="M17.5,16.2c0.4,0,3.9-0.1,4.3-2.1c0-0.2-0.1-0.6-0.3-0.3c-2.4,1.5-4.6-0.6-4.6-0.6s3.8-3.6,3.2-7
								c-0.6-3.4-5.7-6.4-7.2-5.3c2.3,1.3,3.6,4.4,3.6,4.4S14.9,5.7,13.1,4c-0.7,3.9,3.8,4.1,4.6,4.2c0.5,0.1-1.1,3-1.6,3.6
								c-0.1,0.1-0.1,0.1-0.1,0.2c-0.7-0.4-2.7-1.5-4.9-1.5c-2.2,0-4.3,1.1-4.9,1.5c0-0.1,0-0.1-0.1-0.2c-0.6-0.6-2.1-3.5-1.6-3.6
								C5.1,8.1,9.6,7.8,8.9,4C7.1,5.7,5.3,5.4,5.3,5.4s1.3-3.1,3.6-4.4C7.4-0.2,2.3,2.8,1.8,6.2c-0.6,3.4,3.2,7,3.2,7
								s-2.2,2.1-4.6,0.6c-0.2-0.3-0.3,0.1-0.3,0.3c0.4,2,3.9,2.1,4.3,2.1c0.4,0,1,0.7,0.8,1c-0.2,0.3-3.5,0.2-4.9-0.3
								c-0.1,0-0.3,0-0.1,0.2c0.9,1.2,5.3,1.3,5.3,1.4c0,0.2-3,3.1-1.4,4.7c0.1,0.1,0.4,0.2,0.5-0.1c0.8-2.6,2.2-4.2,2.8-4.3
								C7.9,18.7,11,19,11,19c0,0,0.1,0,0.1,0c0.6,0,3-0.2,3.6-0.2c0.6,0.1,2,1.7,2.8,4.3c0.1,0.3,0.4,0.2,0.5,0.1
								c1.6-1.6-1.4-4.5-1.4-4.7c0-0.2,4.4-0.2,5.3-1.4c0.2-0.3,0-0.3-0.1-0.2c-1.4,0.6-4.7,0.6-4.9,0.3
								C16.5,16.9,17.1,16.2,17.5,16.2L17.5,16.2z"/>
						</g>
					</g>
				</g>
			</g>
		</g>
	</g>
</g>
</svg>
